HIERARCHY
ROOT Hips
{
  OFFSET 0.0000 0.0000 0.0000
  CHANNELS 6 Xposition Yposition Zposition Zrotation Xrotation Yrotation
  JOINT LeftHip
  {
    OFFSET 4.5000 0.0000 0.0000
    CHANNELS 3 Zrotation Xrotation Yrotation
    JOINT LeftKnee
    {
      OFFSET -0.0000 -14.5000 0.0000
      CHANNELS 3 Zrotation Xrotation Yrotation
      JOINT LeftAnkle
      {
        OFFSET -0.0000 -15.0000 0.0000
        CHANNELS 3 Zrotation Xrotation Yrotation
        End Site
        {
            OFFSET 0.0000 -4.0000 -2.5000
        }
      }
    }
  }
  JOINT RightHip
  {
    OFFSET -4.7500 -0.0000 0.0000
    CHANNELS 3 Zrotation Xrotation Yrotation
    JOINT RightKnee
    {
      OFFSET 0.0000 -14.5000 -0.0000
      CHANNELS 3 Zrotation Xrotation Yrotation
      JOINT RightAnkle
      {
        OFFSET 0.0000 -15.0000 0.0000
        CHANNELS 3 Zrotation Xrotation Yrotation
        End Site
        {
            OFFSET 0.0000 -4.0000 -2.5000
        }
      }
    }
  }
  JOINT Chest
  {
    OFFSET 0.0000 3.0000 -1.0000
    CHANNELS 3 Zrotation Xrotation Yrotation
    JOINT LeftCollar
    {
      OFFSET -0.0000 16.0000 1.0000
      CHANNELS 3 Zrotation Xrotation Yrotation
      JOINT LeftShoulder
      {
        OFFSET 6.5000 0.0000 -0.0000
        CHANNELS 3 Zrotation Xrotation Yrotation
        JOINT LeftElbow
        {
          OFFSET 0.0000 -9.0000 0.0000
          CHANNELS 3 Zrotation Xrotation Yrotation
          JOINT LeftWrist
          {
            OFFSET 0.0000 -9.5000 0.0000
            CHANNELS 3 Zrotation Xrotation Yrotation
            End Site
            {
                OFFSET -0.0000 -5.0000 0.0000
            }
          }
        }
      }
    }
    JOINT RightCollar
    {
      OFFSET -0.0000 16.0000 1.0000
      CHANNELS 3 Zrotation Xrotation Yrotation
      JOINT RightShoulder
      {
        OFFSET -6.5000 0.0000 -0.0000
        CHANNELS 3 Zrotation Xrotation Yrotation
        JOINT RightElbow
        {
          OFFSET 0.0000 -9.0000 0.0000
          CHANNELS 3 Zrotation Xrotation Yrotation
          JOINT RightWrist
          {
            OFFSET -0.0000 -9.5000 0.0000
            CHANNELS 3 Zrotation Xrotation Yrotation
            End Site
            {
                OFFSET 0.0000 -5.0000 0.0000
            }
          }
        }
      }
    }
    JOINT Neck
    {
      OFFSET -0.0000 16.0000 1.0000
      CHANNELS 3 Zrotation Xrotation Yrotation
      JOINT Head
      {
        OFFSET 0.0000 6.0000 -0.0000
        CHANNELS 3 Zrotation Xrotation Yrotation
        End Site
        {
            OFFSET 0.0000 6.0000 0.0000
        }
      }
    }
  }
}
MOTION
Frames:	24
Frame Time:	0.016667
-0.9586 33.3563 -2.9273 0.62 3.21 -2.33 -6.08 -4.27 0.16 3.00 -2.52 0.00 1.40 3.22 3.12 9.29 -4.88 5.22 -3.00 -0.47 0.00 -0.54 1.06 2.17 0.08 -2.00 0.57 -0.32 -0.64 -0.00 5.09 4.38 7.78 1.86 -23.72 -2.05 -23.65 9.47 -7.88 -0.32 -0.64 -0.00 -5.42 1.23 6.78 -1.66 -23.55 5.13 27.26 9.40 11.18 1.66 8.86 -0.29 -2.08 -25.65 3.53 
-0.9789 33.3560 -2.9144 0.64 3.21 -2.22 -6.08 -4.27 0.16 3.00 -2.48 0.00 1.41 3.18 2.96 9.29 -4.88 5.22 -3.00 -0.47 0.00 -0.54 1.06 2.17 0.08 -2.00 0.57 -0.32 -0.64 -0.00 5.09 4.38 7.78 1.86 -23.63 -2.05 -23.17 9.34 -8.20 -0.32 -0.64 -0.00 -5.63 1.44 6.78 -1.68 -23.36 5.12 27.10 9.36 11.21 1.66 8.94 -0.29 -2.08 -25.72 3.52 
-0.9890 33.3553 -2.9127 0.65 3.21 -2.13 -6.08 -4.27 0.16 3.00 -2.48 0.00 1.41 3.18 2.96 9.27 -4.66 5.21 -3.00 -0.47 0.00 -0.54 1.06 2.17 0.08 -2.00 0.57 -0.32 -0.64 -0.00 5.12 4.17 7.77 1.86 -23.61 -2.05 -23.15 9.49 -8.37 -0.32 -0.64 -0.00 -5.63 1.44 6.78 -1.68 -23.36 5.12 26.78 9.34 11.26 1.66 8.94 -0.29 -1.90 -25.71 3.59 
-1.0070 33.3553 -2.9118 0.66 3.21 -2.07 -6.08 -4.27 0.16 3.00 -2.48 0.00 1.57 3.18 2.96 9.27 -4.66 5.21 -3.00 -0.50 0.00 -0.53 0.92 2.01 0.08 -2.00 0.57 -0.32 -0.64 -0.00 5.12 4.17 7.77 1.86 -23.61 -2.05 -23.15 9.47 -8.37 -0.32 -0.64 -0.00 -5.84 1.44 6.79 -1.71 -23.07 5.11 26.61 9.33 11.28 1.66 8.94 -0.29 -1.63 -25.70 3.71 
-1.0231 33.3621 -2.9205 0.68 3.20 -1.98 -6.08 -4.27 -0.01 3.00 -2.46 0.00 1.58 3.01 2.96 9.25 -4.45 5.20 -3.00 -0.50 0.00 -0.53 0.92 2.01 0.08 -2.00 0.41 -0.16 -0.64 -0.00 5.12 4.17 7.77 1.86 -23.64 -2.05 -23.12 9.66 -8.37 -0.16 -0.64 -0.00 -5.84 1.65 6.79 -1.74 -22.73 5.09 26.37 9.35 11.15 1.59 9.01 -0.28 -1.75 -25.44 3.51 
-1.0265 33.3618 -2.9200 0.68 3.20 -1.95 -6.08 -4.27 -0.01 3.00 -2.46 0.00 1.58 3.01 2.96 9.25 -4.45 5.20 -3.00 -0.50 0.00 -0.37 0.93 2.01 0.08 -2.00 0.41 -0.16 -0.64 -0.00 5.12 4.17 7.77 1.86 -23.64 -2.05 -23.12 9.66 -8.37 -0.16 -0.64 -0.00 -5.84 1.65 6.79 -1.78 -22.34 5.08 26.09 9.56 11.03 1.59 9.01 -0.28 -1.57 -25.43 3.58 
-1.0308 33.3615 -2.9193 0.69 3.20 -1.91 -6.08 -4.27 -0.01 3.00 -2.46 0.00 1.58 3.01 2.96 9.25 -4.45 5.20 -3.00 -0.50 0.00 -0.37 0.93 2.01 0.08 -2.00 0.41 -0.16 -0.64 -0.00 5.12 4.17 7.77 1.86 -23.64 -2.05 -23.12 9.66 -8.37 -0.16 -0.64 -0.00 -5.84 1.65 6.79 -1.78 -22.34 5.08 25.93 9.55 11.05 1.59 9.01 -0.28 -1.58 -25.42 3.42 
-1.0331 33.3607 -2.9815 0.70 3.20 -1.88 -6.08 -4.48 -0.01 3.00 -2.27 0.00 1.58 3.01 2.96 9.25 -4.45 5.20 -3.00 -0.53 0.00 -0.36 0.96 1.85 0.08 -2.00 0.41 -0.16 -0.64 -0.00 5.12 4.17 7.77 1.86 -23.68 -2.05 -22.85 9.83 -8.41 -0.16 -0.64 -0.00 -5.84 1.65 6.79 -1.78 -22.34 5.08 25.76 9.54 11.08 1.59 9.01 -0.28 -1.59 -25.41 3.17 
-1.0354 33.3712 -2.9926 0.70 3.20 -1.86 -6.08 -4.48 -0.01 3.00 -2.25 0.00 1.59 2.75 2.96 9.25 -4.45 5.20 -3.00 -0.54 0.00 -0.20 0.97 1.85 0.08 -2.00 0.41 -0.32 -0.64 -0.00 5.12 4.17 7.77 1.86 -23.68 -2.05 -22.85 9.83 -8.41 -0.32 -0.64 -0.00 -5.84 1.65 6.79 -1.78 -22.34 5.08 25.76 9.54 11.08 1.59 9.01 -0.28 -1.42 -25.39 3.08 
-0.9431 33.3647 -2.9899 0.70 3.20 -1.85 -6.24 -4.48 -0.02 3.00 -2.25 0.00 1.59 2.75 2.96 9.25 -4.45 5.20 -3.00 -0.54 0.00 -0.20 0.97 1.85 0.08 -2.00 0.41 -0.32 -0.64 -0.00 5.12 4.17 7.77 1.86 -23.68 -2.05 -23.34 9.90 -8.33 -0.32 -0.64 -0.00 -5.84 1.86 6.79 -1.78 -22.34 5.08 25.52 9.52 11.11 1.51 9.01 -0.26 -1.50 -25.40 3.21 
-0.9572 33.3646 -2.9894 0.71 3.20 -1.83 -6.24 -4.48 -0.02 3.00 -2.25 0.00 1.75 2.76 2.96 9.11 -4.68 5.20 -3.00 -0.54 0.00 -0.36 0.97 1.85 0.08 -2.00 0.41 -0.32 -0.64 -0.00 5.07 4.48 7.78 1.86 -23.68 -2.05 -23.50 9.93 -8.31 -0.32 -0.64 -0.00 -5.84 2.49 6.80 -1.78 -22.34 5.08 25.52 9.52 11.11 1.39 8.94 -0.24 -1.41 -25.43 2.45 
-0.9562 33.3688 -3.1160 0.71 3.20 -1.80 -6.24 -4.70 -0.02 3.00 -2.25 0.00 1.75 2.76 2.96 9.11 -4.68 5.20 -3.00 -0.57 0.00 -0.36 1.00 1.69 0.08 -2.00 0.41 -0.32 -0.64 -0.00 5.04 4.69 7.78 1.86 -23.69 -2.05 -23.66 9.95 -8.28 -0.32 -0.64 -0.00 -5.84 2.49 6.80 -1.78 -22.34 5.08 25.52 9.52 11.11 1.39 8.86 -0.24 -1.06 -25.18 2.62 
-0.9591 33.3686 -3.1157 0.72 3.20 -1.78 -6.24 -4.70 -0.02 3.00 -2.25 0.00 1.75 2.76 2.96 9.11 -4.68 5.20 -3.00 -0.57 0.00 -0.20 1.01 1.69 0.08 -1.84 0.41 -0.16 -0.64 -0.00 4.84 4.66 7.80 1.86 -23.69 -2.05 -23.66 9.95 -8.28 -0.16 -0.64 -0.00 -5.84 2.49 6.80 -1.78 -22.33 5.08 25.28 9.47 11.15 1.27 8.86 -0.22 -1.03 -25.17 2.47 
-0.9608 33.3685 -3.1154 0.72 3.20 -1.77 -6.24 -4.70 -0.02 3.00 -2.25 0.00 1.75 2.76 2.96 9.11 -4.68 5.20 -3.00 -0.63 0.00 -0.19 1.06 1.45 0.24 -1.84 0.41 -0.16 -0.64 -0.00 4.84 4.66 7.80 1.86 -23.69 -2.05 -23.66 9.95 -8.28 -0.16 -0.64 -0.00 -6.15 2.70 6.82 -1.78 -22.33 5.08 25.28 9.47 11.15 1.26 8.75 -0.22 -1.04 -25.04 2.23 
-0.9619 33.3684 -3.1153 0.72 3.20 -1.76 -6.24 -4.70 -0.02 3.00 -2.25 0.00 1.75 2.76 2.96 9.11 -4.68 5.20 -3.00 -0.90 0.00 -0.19 0.80 1.45 0.24 -1.84 0.41 -0.16 -0.64 -0.00 4.84 4.66 7.80 1.86 -23.69 -2.05 -23.82 9.98 -8.25 -0.16 -0.64 -0.00 -6.15 2.70 6.82 -1.78 -22.33 5.08 25.12 9.43 11.18 1.11 8.75 -0.19 -0.97 -25.02 1.94 
-0.9546 33.3672 -3.1040 0.73 3.22 -1.73 -6.24 -4.70 -0.02 3.00 -2.25 0.00 1.59 2.76 2.96 9.11 -4.68 5.20 -3.00 -0.90 0.00 -0.19 0.80 1.45 0.24 -1.84 0.41 -0.16 -0.64 -0.00 5.04 4.69 7.78 1.86 -23.69 -2.05 -23.98 9.99 -8.23 -0.16 -0.64 -0.00 -6.15 2.70 6.82 -1.78 -22.33 5.08 25.28 9.45 11.15 0.95 8.64 -0.17 -0.89 -25.14 1.81 
-0.9576 33.3670 -3.1036 0.73 3.22 -1.71 -6.24 -4.70 -0.02 3.00 -2.25 0.00 1.59 2.76 2.96 9.09 -4.46 5.19 -3.00 -0.90 0.00 -0.19 0.80 1.45 0.24 -2.00 0.41 -0.16 -0.64 -0.00 5.12 4.17 7.99 1.86 -23.69 -2.05 -23.98 9.99 -8.23 -0.16 -0.64 -0.00 -6.15 2.70 6.82 -1.78 -22.33 5.08 25.44 9.46 11.13 0.95 8.56 -0.16 -0.53 -25.21 1.80 
-0.9612 33.3659 -3.0734 0.74 3.26 -1.67 -6.24 -4.70 -0.02 3.00 -2.25 0.00 1.59 2.76 2.96 9.09 -4.46 5.19 -3.00 -0.90 0.00 -0.19 0.80 1.45 0.24 -2.00 0.41 -0.16 -0.64 -0.00 5.12 4.17 7.99 1.86 -23.69 -2.05 -24.15 10.02 -8.20 -0.16 -0.64 -0.00 -6.15 2.70 6.82 -1.78 -22.38 5.08 25.28 9.47 10.99 0.79 8.56 -0.14 -0.72 -25.37 1.72 
-0.9712 33.3653 -3.0481 0.73 3.31 -1.62 -6.24 -4.70 -0.02 3.00 -2.25 0.00 1.75 2.77 2.96 9.07 -4.24 4.78 -3.00 -1.07 0.00 -0.19 0.94 1.61 0.24 -2.00 0.41 -0.16 -0.64 -0.00 5.12 4.17 7.99 1.86 -23.69 -2.05 -24.15 10.02 -8.20 -0.16 -0.64 -0.00 -6.15 2.70 6.82 -1.78 -22.38 5.08 25.45 9.48 10.96 0.72 8.49 -0.12 -0.55 -25.44 1.63 
-0.9873 33.3639 -3.0015 0.74 3.38 -1.51 -6.24 -4.70 -0.02 3.00 -2.25 0.00 1.91 2.77 2.96 9.07 -4.24 4.78 -3.00 -1.07 0.00 -0.19 0.94 1.61 0.24 -1.84 0.41 -0.16 -0.64 -0.00 5.12 4.17 7.99 1.86 -23.69 -2.05 -24.15 10.02 -8.20 -0.16 -0.64 -0.00 -6.15 2.70 6.82 -1.78 -22.37 5.08 25.29 9.44 10.99 0.72 8.49 -0.12 -0.56 -25.43 1.22 
-1.0003 33.3648 -2.9830 0.74 3.38 -1.43 -6.24 -4.70 -0.02 3.00 -2.19 0.00 1.92 2.71 2.72 8.91 -4.26 4.77 -3.00 -1.07 0.00 -0.03 0.94 1.61 0.24 -1.84 0.65 -0.16 -0.64 -0.00 5.12 4.17 7.99 1.86 -23.69 -2.05 -24.31 10.04 -8.17 -0.16 -0.64 -0.00 -6.15 2.70 6.82 -1.77 -22.42 5.08 25.45 9.50 10.80 0.64 8.49 -0.11 -0.13 -25.66 1.00 
-1.0026 33.3645 -2.9805 0.74 3.38 -1.32 -6.24 -4.70 -0.02 3.00 -2.19 0.00 1.92 2.71 2.72 8.91 -4.26 4.77 -3.00 -1.06 0.00 -0.03 0.77 1.61 0.24 -1.84 0.65 -0.32 -0.64 -0.00 5.12 4.17 7.77 1.86 -23.69 -2.05 -24.47 10.05 -8.15 -0.32 -0.64 -0.00 -6.15 2.70 6.82 -1.77 -22.43 5.08 25.69 9.55 10.76 0.57 8.49 -0.10 0.04 -26.05 0.83 
-1.0203 33.3649 -2.9608 0.75 3.38 -1.18 -6.24 -4.70 -0.02 3.00 -2.13 0.00 1.93 2.65 2.48 8.89 -4.04 4.76 -3.00 -1.09 0.00 -0.03 0.80 1.45 0.24 -1.84 0.65 -0.16 -0.64 -0.00 4.91 4.14 7.79 1.86 -23.70 -2.05 -24.71 10.09 -8.11 -0.16 -0.64 -0.00 -6.15 2.70 6.82 -1.77 -22.40 5.08 25.96 9.38 10.72 0.57 8.60 -0.10 0.29 -26.56 0.61 
-1.0330 33.3721 -2.9542 0.75 3.37 -1.05 -6.24 -4.70 -0.02 3.00 -2.08 0.00 1.94 2.44 2.32 8.89 -4.04 4.51 -3.00 -1.09 0.00 -0.03 0.80 1.45 0.24 -1.84 0.81 -0.16 -0.64 -0.00 5.15 3.96 7.77 1.86 -23.63 -2.05 -24.93 9.73 -8.07 -0.16 -0.64 -0.00 -6.15 2.70 6.82 -1.77 -22.44 5.08 26.42 9.63 10.65 0.49 8.60 -0.09 0.64 -27.04 0.52 
